<svg width="33" height="33" viewBox="0 0 33 33" fill="none" xmlns="http://www.w3.org/2000/svg">
<path d="M16.5 11.1628C13.5611 11.1628 11.1628 13.5611 11.1628 16.5C11.1628 19.4388 13.5611 21.8372 16.5 21.8372C19.4389 21.8372 21.8372 19.4388 21.8372 16.5C21.8372 13.5611 19.4389 11.1628 16.5 11.1628ZM32.5076 16.5C32.5076 14.2898 32.5276 12.0997 32.4035 9.89353C32.2794 7.33104 31.6948 5.05682 29.821 3.18299C27.9432 1.30516 25.673 0.724592 23.1105 0.600471C20.9003 0.47635 18.7102 0.496369 16.504 0.496369C14.2939 0.496369 12.1037 0.47635 9.89757 0.600471C7.33507 0.724592 5.06085 1.30916 3.18702 3.18299C1.30919 5.06082 0.72862 7.33104 0.604499 9.89353C0.480378 12.1037 0.500397 14.2938 0.500397 16.5C0.500397 18.7061 0.480378 20.9003 0.604499 23.1064C0.72862 25.6689 1.31319 27.9431 3.18702 29.817C5.06485 31.6948 7.33507 32.2754 9.89757 32.3995C12.1077 32.5236 14.2979 32.5036 16.504 32.5036C18.7142 32.5036 20.9043 32.5236 23.1105 32.3995C25.673 32.2754 27.9472 31.6908 29.821 29.817C31.6988 27.9391 32.2794 25.6689 32.4035 23.1064C32.5317 20.9003 32.5076 18.7101 32.5076 16.5ZM16.5 24.712C11.9556 24.712 8.288 21.0444 8.288 16.5C8.288 11.9555 11.9556 8.28797 16.5 8.28797C21.0444 8.28797 24.712 11.9555 24.712 16.5C24.712 21.0444 21.0444 24.712 16.5 24.712ZM25.0483 9.86951C23.9873 9.86951 23.1305 9.01268 23.1305 7.95164C23.1305 6.89061 23.9873 6.03377 25.0483 6.03377C26.1094 6.03377 26.9662 6.89061 26.9662 7.95164C26.9665 8.20359 26.9171 8.45312 26.8209 8.68595C26.7246 8.91878 26.5833 9.13033 26.4052 9.30849C26.227 9.48664 26.0155 9.6279 25.7827 9.72417C25.5498 9.82044 25.3003 9.86983 25.0483 9.86951Z" fill="url(#paint0_linear_12_47)"/>
<defs>
<linearGradient id="paint0_linear_12_47" x1="33" y1="6.42702e-07" x2="-6.28456e-07" y2="33" gradientUnits="userSpaceOnUse">
<stop stop-color="#5769AA"/>
<stop offset="0.5" stop-color="#C93A73"/>
<stop offset="1" stop-color="#F0BA67"/>
</linearGradient>
</defs>
</svg>
