<svg width="32" height="33" viewBox="0 0 32 33" fill="none" xmlns="http://www.w3.org/2000/svg">
<path fill-rule="evenodd" clip-rule="evenodd" d="M32 16.5C32 25.336 24.836 32.5 16 32.5C7.164 32.5 0 25.336 0 16.5C0 7.664 7.164 0.5 16 0.5C24.836 0.5 32 7.664 32 16.5ZM16.5733 12.312C15.0173 12.9587 11.9067 14.2987 7.24267 16.3307C6.48533 16.632 6.088 16.9267 6.052 17.2147C5.99067 17.7027 6.60133 17.8947 7.43067 18.1547C7.544 18.1907 7.66133 18.2267 7.78133 18.2667C8.59867 18.532 9.69733 18.8427 10.268 18.8547C10.7867 18.8653 11.3653 18.652 12.004 18.2147C16.3613 15.272 18.6107 13.7853 18.752 13.7533C18.852 13.7307 18.9907 13.7013 19.084 13.7853C19.1773 13.868 19.168 14.0253 19.1587 14.068C19.0973 14.3253 16.7053 16.5507 15.4653 17.7027C15.0787 18.0613 14.8053 18.316 14.7493 18.3747C14.624 18.504 14.496 18.628 14.3733 18.7467C13.6133 19.4773 13.0453 20.0267 14.4053 20.9227C15.0587 21.3533 15.5813 21.7093 16.1027 22.064C16.672 22.452 17.24 22.8387 17.976 23.3213C18.1627 23.444 18.3413 23.5707 18.516 23.6947C19.1787 24.168 19.7747 24.592 20.5107 24.5253C20.9373 24.4853 21.38 24.084 21.604 22.8853C22.1333 20.0507 23.176 13.912 23.4173 11.3813C23.432 11.1712 23.4231 10.9601 23.3907 10.752C23.3713 10.5839 23.2894 10.4292 23.1613 10.3187C22.9707 10.1627 22.6747 10.1293 22.5413 10.132C21.94 10.1427 21.0173 10.464 16.5733 12.312Z" fill="#35B6F1"/>
</svg>
